<svg xmlns="http://www.w3.org/2000/svg" viewBox="0 0 64 64">
  <rect width="64" height="64" rx="14" fill="#0a0b10"/>
  <rect x="14" y="15" width="11" height="5" rx="2.5" fill="#ffb13d"/>
  <rect x="39" y="15" width="11" height="5" rx="2.5" fill="#ffb13d"/>
  <path d="M16 26 H48 C54 26 58.5 31 57.3 37 L55 47 C53.8 51.5 48 53.5 44.6 50 L40 45 H24 L19.4 50 C16 53.5 10.2 51.5 9 47 L6.7 37 C5.5 31 10 26 16 26 Z" fill="#ffb13d"/>
  <rect x="18" y="33.5" width="3" height="9" rx="1" fill="#0a0b10"/>
  <rect x="14.5" y="37" width="9" height="3" rx="1" fill="#0a0b10"/>
  <circle cx="44.5" cy="33.5" r="2.3" fill="#0a0b10"/>
  <circle cx="49" cy="38" r="2.3" fill="#0a0b10"/>
  <circle cx="44.5" cy="42.5" r="2.3" fill="#0a0b10"/>
  <circle cx="40" cy="38" r="2.3" fill="#0a0b10"/>
</svg>
